<!-- <svg width="189" height="40" viewBox="0 0 189 40" fill="none" xmlns="http://www.w3.org/2000/svg">
<path fill-rule="evenodd" clip-rule="evenodd" d="M7.5 10C7.5 8.61929 8.61929 7.5 10 7.5H13.75C15.1307 7.5 16.25 8.61929 16.25 10V30C16.25 31.3807 15.1307 32.5 13.75 32.5H10C8.61929 32.5 7.5 31.3807 7.5 30V10ZM13.75 10H10V30H13.75V10Z" fill="#00B37E"/>
<path fill-rule="evenodd" clip-rule="evenodd" d="M23.75 10C23.75 8.61929 24.8693 7.5 26.25 7.5H30C31.3807 7.5 32.5 8.61929 32.5 10V30C32.5 31.3807 31.3807 32.5 30 32.5H26.25C24.8693 32.5 23.75 31.3807 23.75 30V10ZM30 10H26.25V30H30V10Z" fill="#00B37E"/>
<path fill-rule="evenodd" clip-rule="evenodd" d="M30 12.5C30 11.8096 30.5596 11.25 31.25 11.25H35C35.663 11.25 36.2989 11.5134 36.7678 11.9822C37.2366 12.4511 37.5 13.087 37.5 13.75V26.25C37.5 26.913 37.2366 27.5489 36.7678 28.0178C36.2989 28.4866 35.663 28.75 35 28.75H31.25C30.5596 28.75 30 28.1904 30 27.5C30 26.8096 30.5596 26.25 31.25 26.25H35L35 13.75L31.25 13.75C30.5596 13.75 30 13.1904 30 12.5Z" fill="#00B37E"/>
<path fill-rule="evenodd" clip-rule="evenodd" d="M3.23223 11.9822C3.70107 11.5134 4.33696 11.25 5 11.25H8.75C9.44036 11.25 10 11.8096 10 12.5C10 13.1904 9.44036 13.75 8.75 13.75L5 13.75V26.25H8.75C9.44036 26.25 10 26.8096 10 27.5C10 28.1904 9.44036 28.75 8.75 28.75H5C4.33696 28.75 3.70108 28.4866 3.23223 28.0178C2.76339 27.5489 2.5 26.913 2.5 26.25V13.75C2.5 13.087 2.76339 12.4511 3.23223 11.9822Z" fill="#00B37E"/>
<path fill-rule="evenodd" clip-rule="evenodd" d="M13.75 20C13.75 19.3096 14.3096 18.75 15 18.75H25C25.6904 18.75 26.25 19.3096 26.25 20C26.25 20.6904 25.6904 21.25 25 21.25H15C14.3096 21.25 13.75 20.6904 13.75 20Z" fill="#00B37E"/>
<path fill-rule="evenodd" clip-rule="evenodd" d="M35 20C35 19.3096 35.5596 18.75 36.25 18.75H38.75C39.4404 18.75 40 19.3096 40 20C40 20.6904 39.4404 21.25 38.75 21.25H36.25C35.5596 21.25 35 20.6904 35 20Z" fill="#00B37E"/>
<path fill-rule="evenodd" clip-rule="evenodd" d="M0 20C0 19.3096 0.559644 18.75 1.25 18.75H3.75C4.44036 18.75 5 19.3096 5 20C5 20.6904 4.44036 21.25 3.75 21.25H1.25C0.559644 21.25 0 20.6904 0 20Z" fill="#00B37E"/>
<path d="M58.4707 9.59375V29.5H54.3828V9.59375H58.4707ZM71.4316 14.707H75V29.0078C75 30.3568 74.6992 31.5007 74.0977 32.4395C73.5052 33.3874 72.6758 34.1029 71.6094 34.5859C70.543 35.0781 69.3034 35.3242 67.8906 35.3242C67.2708 35.3242 66.6146 35.2422 65.9219 35.0781C65.2383 34.9141 64.582 34.6589 63.9531 34.3125C63.3333 33.9661 62.8138 33.5286 62.3945 33L64.1309 30.6758C64.5866 31.2044 65.1152 31.6146 65.7168 31.9062C66.3184 32.207 66.9837 32.3574 67.7129 32.3574C68.4238 32.3574 69.0254 32.2253 69.5176 31.9609C70.0098 31.7057 70.388 31.3275 70.6523 30.8262C70.9167 30.334 71.0488 29.737 71.0488 29.0352V18.125L71.4316 14.707ZM61.4785 22.2812V21.9941C61.4785 20.8639 61.6152 19.8385 61.8887 18.918C62.1712 17.9883 62.5677 17.1908 63.0781 16.5254C63.5977 15.86 64.2266 15.3451 64.9648 14.9805C65.7031 14.6159 66.5371 14.4336 67.4668 14.4336C68.4512 14.4336 69.276 14.6159 69.9414 14.9805C70.6068 15.3451 71.1536 15.8646 71.582 16.5391C72.0104 17.2044 72.3431 17.9928 72.5801 18.9043C72.8262 19.8066 73.0176 20.7956 73.1543 21.8711V22.5C73.0176 23.5299 72.8125 24.487 72.5391 25.3711C72.2656 26.2552 71.9056 27.0299 71.459 27.6953C71.0124 28.3516 70.4564 28.862 69.791 29.2266C69.1348 29.5911 68.3509 29.7734 67.4395 29.7734C66.528 29.7734 65.7031 29.5866 64.9648 29.2129C64.2357 28.8392 63.6113 28.3151 63.0918 27.6406C62.5723 26.9661 62.1712 26.1732 61.8887 25.2617C61.6152 24.3503 61.4785 23.3568 61.4785 22.2812ZM65.416 21.9941V22.2812C65.416 22.8919 65.4753 23.4616 65.5938 23.9902C65.7122 24.5189 65.8945 24.9883 66.1406 25.3984C66.3958 25.7995 66.7103 26.1139 67.084 26.3418C67.4668 26.5605 67.918 26.6699 68.4375 26.6699C69.1576 26.6699 69.7454 26.5195 70.2012 26.2188C70.6569 25.9089 70.9987 25.485 71.2266 24.9473C71.4544 24.4095 71.5866 23.7897 71.623 23.0879V21.2969C71.6048 20.7227 71.5273 20.2077 71.3906 19.752C71.2539 19.2871 71.0625 18.8906 70.8164 18.5625C70.5703 18.2344 70.2513 17.9792 69.8594 17.7969C69.4674 17.6146 69.0026 17.5234 68.4648 17.5234C67.9453 17.5234 67.4941 17.6419 67.1113 17.8789C66.7376 18.1068 66.4232 18.4212 66.168 18.8223C65.9219 19.2233 65.735 19.6973 65.6074 20.2441C65.4798 20.7819 65.416 21.3652 65.416 21.9941ZM81.918 17.8652V29.5H77.9805V14.707H81.6719L81.918 17.8652ZM81.3438 21.584H80.2773C80.2773 20.4902 80.4186 19.5059 80.7012 18.6309C80.9837 17.7467 81.3802 16.9948 81.8906 16.375C82.401 15.7461 83.0072 15.2676 83.709 14.9395C84.4199 14.6022 85.2129 14.4336 86.0879 14.4336C86.7806 14.4336 87.4141 14.5339 87.9883 14.7344C88.5625 14.9349 89.0547 15.2539 89.4648 15.6914C89.8841 16.1289 90.2031 16.7077 90.4219 17.4277C90.6497 18.1478 90.7637 19.0273 90.7637 20.0664V29.5H86.7988V20.0527C86.7988 19.3965 86.7077 18.8861 86.5254 18.5215C86.3431 18.1569 86.0742 17.9017 85.7188 17.7559C85.3724 17.6009 84.944 17.5234 84.4336 17.5234C83.9049 17.5234 83.4447 17.6283 83.0527 17.8379C82.6699 18.0475 82.3509 18.3392 82.0957 18.7129C81.8496 19.0775 81.6628 19.5059 81.5352 19.998C81.4076 20.4902 81.3438 21.0189 81.3438 21.584ZM97.9141 14.707V29.5H93.9629V14.707H97.9141ZM93.7168 10.8516C93.7168 10.2773 93.9173 9.80339 94.3184 9.42969C94.7194 9.05599 95.2572 8.86914 95.9316 8.86914C96.597 8.86914 97.1302 9.05599 97.5312 9.42969C97.9414 9.80339 98.1465 10.2773 98.1465 10.8516C98.1465 11.4258 97.9414 11.8997 97.5312 12.2734C97.1302 12.6471 96.597 12.834 95.9316 12.834C95.2572 12.834 94.7194 12.6471 94.3184 12.2734C93.9173 11.8997 93.7168 11.4258 93.7168 10.8516ZM108.414 14.707V17.4961H99.8008V14.707H108.414ZM101.934 11.0566H105.871V25.043C105.871 25.4714 105.926 25.7995 106.035 26.0273C106.154 26.2552 106.327 26.4147 106.555 26.5059C106.783 26.5879 107.07 26.6289 107.416 26.6289C107.662 26.6289 107.881 26.6198 108.072 26.6016C108.273 26.5742 108.441 26.5469 108.578 26.5195L108.592 29.418C108.255 29.5273 107.89 29.6139 107.498 29.6777C107.106 29.7415 106.673 29.7734 106.199 29.7734C105.333 29.7734 104.577 29.6322 103.93 29.3496C103.292 29.0579 102.799 28.5931 102.453 27.9551C102.107 27.3171 101.934 26.4785 101.934 25.4395V11.0566ZM117.465 29.7734C116.316 29.7734 115.286 29.5911 114.375 29.2266C113.464 28.8529 112.689 28.3379 112.051 27.6816C111.422 27.0254 110.939 26.2643 110.602 25.3984C110.264 24.5234 110.096 23.5938 110.096 22.6094V22.0625C110.096 20.9414 110.255 19.916 110.574 18.9863C110.893 18.0566 111.349 17.25 111.941 16.5664C112.543 15.8828 113.272 15.3587 114.129 14.9941C114.986 14.6204 115.952 14.4336 117.027 14.4336C118.076 14.4336 119.005 14.6068 119.816 14.9531C120.628 15.2995 121.307 15.7917 121.854 16.4297C122.41 17.0677 122.829 17.8333 123.111 18.7266C123.394 19.6107 123.535 20.5951 123.535 21.6797V23.3203H111.777V20.6953H119.666V20.3945C119.666 19.8477 119.566 19.36 119.365 18.9316C119.174 18.4941 118.882 18.1478 118.49 17.8926C118.098 17.6374 117.597 17.5098 116.986 17.5098C116.467 17.5098 116.02 17.6237 115.646 17.8516C115.273 18.0794 114.967 18.3984 114.73 18.8086C114.503 19.2188 114.329 19.7018 114.211 20.2578C114.102 20.8047 114.047 21.4062 114.047 22.0625V22.6094C114.047 23.2018 114.129 23.7487 114.293 24.25C114.466 24.7513 114.708 25.1842 115.018 25.5488C115.337 25.9134 115.719 26.196 116.166 26.3965C116.622 26.597 117.137 26.6973 117.711 26.6973C118.422 26.6973 119.083 26.5605 119.693 26.2871C120.313 26.0046 120.846 25.5807 121.293 25.0156L123.207 27.0938C122.897 27.5404 122.473 27.9688 121.936 28.3789C121.407 28.7891 120.769 29.1263 120.021 29.3906C119.274 29.6458 118.422 29.7734 117.465 29.7734ZM148.773 19.0957V26.9844C148.464 27.3581 147.985 27.7637 147.338 28.2012C146.691 28.6296 145.857 28.9987 144.836 29.3086C143.815 29.6185 142.58 29.7734 141.131 29.7734C139.846 29.7734 138.674 29.5638 137.617 29.1445C136.56 28.7161 135.648 28.0918 134.883 27.2715C134.126 26.4512 133.543 25.4486 133.133 24.2637C132.723 23.0697 132.518 21.707 132.518 20.1758V18.9316C132.518 17.4004 132.714 16.0378 133.105 14.8438C133.507 13.6497 134.076 12.6426 134.814 11.8223C135.553 11.002 136.432 10.3776 137.453 9.94922C138.474 9.52083 139.609 9.30664 140.857 9.30664C142.589 9.30664 144.011 9.58919 145.123 10.1543C146.235 10.7103 147.083 11.485 147.666 12.4785C148.258 13.4629 148.623 14.5931 148.76 15.8691H144.781C144.681 15.1947 144.49 14.6068 144.207 14.1055C143.924 13.6042 143.519 13.2122 142.99 12.9297C142.471 12.6471 141.796 12.5059 140.967 12.5059C140.283 12.5059 139.673 12.6471 139.135 12.9297C138.606 13.2031 138.16 13.6087 137.795 14.1465C137.43 14.6842 137.152 15.3496 136.961 16.1426C136.77 16.9355 136.674 17.8561 136.674 18.9043V20.1758C136.674 21.2148 136.774 22.1354 136.975 22.9375C137.175 23.7305 137.471 24.4004 137.863 24.9473C138.264 25.485 138.757 25.8906 139.34 26.1641C139.923 26.4375 140.602 26.5742 141.377 26.5742C142.024 26.5742 142.562 26.5195 142.99 26.4102C143.428 26.3008 143.779 26.1686 144.043 26.0137C144.316 25.8496 144.526 25.6947 144.672 25.5488V22.0215H140.926V19.0957H148.773ZM156.225 27.832L160.148 14.707H164.373L158.426 31.7285C158.298 32.1022 158.125 32.5033 157.906 32.9316C157.697 33.36 157.41 33.7656 157.045 34.1484C156.689 34.5404 156.238 34.8594 155.691 35.1055C155.154 35.3516 154.493 35.4746 153.709 35.4746C153.335 35.4746 153.03 35.4518 152.793 35.4062C152.556 35.3607 152.273 35.2969 151.945 35.2148V32.3301C152.046 32.3301 152.15 32.3301 152.26 32.3301C152.369 32.3392 152.474 32.3438 152.574 32.3438C153.094 32.3438 153.518 32.2845 153.846 32.166C154.174 32.0475 154.438 31.8652 154.639 31.6191C154.839 31.3822 154.999 31.0723 155.117 30.6895L156.225 27.832ZM154.584 14.707L157.797 25.4258L158.357 29.5957L155.678 29.8828L150.359 14.707H154.584ZM169.883 17.7695V29.5H165.932V14.707H169.637L169.883 17.7695ZM169.336 21.584H168.242C168.242 20.554 168.365 19.6061 168.611 18.7402C168.867 17.8652 169.236 17.1087 169.719 16.4707C170.211 15.8236 170.817 15.3223 171.537 14.9668C172.257 14.6113 173.091 14.4336 174.039 14.4336C174.695 14.4336 175.297 14.5339 175.844 14.7344C176.391 14.9258 176.86 15.2311 177.252 15.6504C177.653 16.0605 177.963 16.5983 178.182 17.2637C178.4 17.9199 178.51 18.7083 178.51 19.6289V29.5H174.572V20.0664C174.572 19.3919 174.481 18.8724 174.299 18.5078C174.117 18.1432 173.857 17.888 173.52 17.7422C173.191 17.5964 172.795 17.5234 172.33 17.5234C171.82 17.5234 171.373 17.6283 170.99 17.8379C170.617 18.0475 170.307 18.3392 170.061 18.7129C169.814 19.0775 169.632 19.5059 169.514 19.998C169.395 20.4902 169.336 21.0189 169.336 21.584ZM178.141 21.1328L176.732 21.3105C176.732 20.3444 176.851 19.4466 177.088 18.6172C177.334 17.7878 177.694 17.0586 178.168 16.4297C178.651 15.8008 179.248 15.3132 179.959 14.9668C180.67 14.6113 181.49 14.4336 182.42 14.4336C183.131 14.4336 183.778 14.5384 184.361 14.748C184.945 14.9486 185.441 15.2721 185.852 15.7188C186.271 16.1562 186.59 16.7305 186.809 17.4414C187.036 18.1523 187.15 19.0228 187.15 20.0527V29.5H183.199V20.0527C183.199 19.3691 183.108 18.8496 182.926 18.4941C182.753 18.1296 182.497 17.8789 182.16 17.7422C181.832 17.5964 181.44 17.5234 180.984 17.5234C180.51 17.5234 180.096 17.6191 179.74 17.8105C179.385 17.9928 179.089 18.248 178.852 18.5762C178.615 18.9043 178.437 19.2871 178.318 19.7246C178.2 20.153 178.141 20.6224 178.141 21.1328Z" fill="white"/>
</svg> -->

<svg width="229" height="40" viewBox="0 0 229 40" fill="none" xmlns="http://www.w3.org/2000/svg">
<g clip-path="url(#clip0_405_3573)">
<path fill-rule="evenodd" clip-rule="evenodd" d="M8 10C8 8.61929 9.11929 7.5 10.5 7.5H14.25C15.6307 7.5 16.75 8.61929 16.75 10V30C16.75 31.3807 15.6307 32.5 14.25 32.5H10.5C9.11929 32.5 8 31.3807 8 30V10ZM14.25 10H10.5V30H14.25V10Z" fill="#00B37E"/>
<path fill-rule="evenodd" clip-rule="evenodd" d="M24.25 10C24.25 8.61929 25.3693 7.5 26.75 7.5H30.5C31.8807 7.5 33 8.61929 33 10V30C33 31.3807 31.8807 32.5 30.5 32.5H26.75C25.3693 32.5 24.25 31.3807 24.25 30V10ZM30.5 10H26.75V30H30.5V10Z" fill="#00B37E"/>
<path fill-rule="evenodd" clip-rule="evenodd" d="M30.5 12.5C30.5 11.8096 31.0596 11.25 31.75 11.25H35.5C36.163 11.25 36.7989 11.5134 37.2678 11.9822C37.7366 12.4511 38 13.087 38 13.75V26.25C38 26.913 37.7366 27.5489 37.2678 28.0178C36.7989 28.4866 36.163 28.75 35.5 28.75H31.75C31.0596 28.75 30.5 28.1904 30.5 27.5C30.5 26.8096 31.0596 26.25 31.75 26.25H35.5L35.5 13.75L31.75 13.75C31.0596 13.75 30.5 13.1904 30.5 12.5Z" fill="#00B37E"/>
<path fill-rule="evenodd" clip-rule="evenodd" d="M3.73223 11.9822C4.20107 11.5134 4.83696 11.25 5.5 11.25H9.25C9.94036 11.25 10.5 11.8096 10.5 12.5C10.5 13.1904 9.94036 13.75 9.25 13.75L5.5 13.75V26.25H9.25C9.94036 26.25 10.5 26.8096 10.5 27.5C10.5 28.1904 9.94036 28.75 9.25 28.75H5.5C4.83696 28.75 4.20108 28.4866 3.73223 28.0178C3.26339 27.5489 3 26.913 3 26.25V13.75C3 13.087 3.26339 12.4511 3.73223 11.9822Z" fill="#00B37E"/>
<path fill-rule="evenodd" clip-rule="evenodd" d="M14.25 20C14.25 19.3096 14.8096 18.75 15.5 18.75H25.5C26.1904 18.75 26.75 19.3096 26.75 20C26.75 20.6904 26.1904 21.25 25.5 21.25H15.5C14.8096 21.25 14.25 20.6904 14.25 20Z" fill="#00B37E"/>
<path fill-rule="evenodd" clip-rule="evenodd" d="M35.5 20C35.5 19.3096 36.0596 18.75 36.75 18.75H39.25C39.9404 18.75 40.5 19.3096 40.5 20C40.5 20.6904 39.9404 21.25 39.25 21.25H36.75C36.0596 21.25 35.5 20.6904 35.5 20Z" fill="#00B37E"/>
<path fill-rule="evenodd" clip-rule="evenodd" d="M0.5 20C0.5 19.3096 1.05964 18.75 1.75 18.75H4.25C4.94036 18.75 5.5 19.3096 5.5 20C5.5 20.6904 4.94036 21.25 4.25 21.25H1.75C1.05964 21.25 0.5 20.6904 0.5 20Z" fill="#00B37E"/>
</g>
<path d="M62.0645 22.4043H56.9922V19.2051H62.0645C62.8483 19.2051 63.4863 19.0775 63.9785 18.8223C64.4707 18.5579 64.8307 18.1934 65.0586 17.7285C65.2865 17.2637 65.4004 16.7396 65.4004 16.1562C65.4004 15.5638 65.2865 15.0124 65.0586 14.502C64.8307 13.9915 64.4707 13.5814 63.9785 13.2715C63.4863 12.9616 62.8483 12.8066 62.0645 12.8066H58.4141V29.5H54.3125V9.59375H62.0645C63.623 9.59375 64.9583 9.8763 66.0703 10.4414C67.1914 10.9974 68.0482 11.7676 68.6406 12.752C69.2331 13.7363 69.5293 14.862 69.5293 16.1289C69.5293 17.4141 69.2331 18.526 68.6406 19.4648C68.0482 20.4036 67.1914 21.1283 66.0703 21.6387C64.9583 22.1491 63.623 22.4043 62.0645 22.4043ZM78.7305 29.7734C77.582 29.7734 76.5521 29.5911 75.6406 29.2266C74.7292 28.8529 73.9544 28.3379 73.3164 27.6816C72.6875 27.0254 72.2044 26.2643 71.8672 25.3984C71.5299 24.5234 71.3613 23.5938 71.3613 22.6094V22.0625C71.3613 20.9414 71.5208 19.916 71.8398 18.9863C72.1589 18.0566 72.6146 17.25 73.207 16.5664C73.8086 15.8828 74.5378 15.3587 75.3945 14.9941C76.2513 14.6204 77.2174 14.4336 78.293 14.4336C79.3411 14.4336 80.2708 14.6068 81.082 14.9531C81.8932 15.2995 82.5723 15.7917 83.1191 16.4297C83.6751 17.0677 84.0944 17.8333 84.377 18.7266C84.6595 19.6107 84.8008 20.5951 84.8008 21.6797V23.3203H73.043V20.6953H80.9316V20.3945C80.9316 19.8477 80.8314 19.36 80.6309 18.9316C80.4395 18.4941 80.1478 18.1478 79.7559 17.8926C79.3639 17.6374 78.8626 17.5098 78.252 17.5098C77.7324 17.5098 77.2858 17.6237 76.9121 17.8516C76.5384 18.0794 76.2331 18.3984 75.9961 18.8086C75.7682 19.2188 75.5951 19.7018 75.4766 20.2578C75.3672 20.8047 75.3125 21.4062 75.3125 22.0625V22.6094C75.3125 23.2018 75.3945 23.7487 75.5586 24.25C75.7318 24.7513 75.9733 25.1842 76.2832 25.5488C76.6022 25.9134 76.985 26.196 77.4316 26.3965C77.8874 26.597 78.4023 26.6973 78.9766 26.6973C79.6875 26.6973 80.3483 26.5605 80.959 26.2871C81.5788 26.0046 82.112 25.5807 82.5586 25.0156L84.4727 27.0938C84.1628 27.5404 83.7389 27.9688 83.2012 28.3789C82.6725 28.7891 82.0345 29.1263 81.2871 29.3906C80.5397 29.6458 79.6875 29.7734 78.7305 29.7734ZM90.9805 17.9336V29.5H87.043V14.707H90.748L90.9805 17.9336ZM95.4375 14.6113L95.3691 18.2617C95.1777 18.2344 94.9453 18.2116 94.6719 18.1934C94.4076 18.166 94.166 18.1523 93.9473 18.1523C93.3913 18.1523 92.9082 18.2253 92.498 18.3711C92.097 18.5078 91.7598 18.7129 91.4863 18.9863C91.222 19.2598 91.0215 19.5924 90.8848 19.9844C90.7572 20.3763 90.6842 20.8229 90.666 21.3242L89.873 21.0781C89.873 20.1211 89.9688 19.2415 90.1602 18.4395C90.3516 17.6283 90.6296 16.9219 90.9941 16.3203C91.3678 15.7188 91.8236 15.2539 92.3613 14.9258C92.8991 14.5977 93.5143 14.4336 94.207 14.4336C94.4258 14.4336 94.6491 14.4518 94.877 14.4883C95.1048 14.5156 95.2917 14.5566 95.4375 14.6113ZM105.295 25.4121C105.295 25.1296 105.213 24.8743 105.049 24.6465C104.885 24.4186 104.579 24.209 104.133 24.0176C103.695 23.8171 103.062 23.6348 102.232 23.4707C101.485 23.3066 100.788 23.1016 100.141 22.8555C99.5026 22.6003 98.9466 22.2949 98.4727 21.9395C98.0078 21.584 97.6432 21.1647 97.3789 20.6816C97.1146 20.1895 96.9824 19.6289 96.9824 19C96.9824 18.3802 97.1146 17.7969 97.3789 17.25C97.6523 16.7031 98.0397 16.2201 98.541 15.8008C99.0514 15.3724 99.6712 15.0397 100.4 14.8027C101.139 14.5566 101.968 14.4336 102.889 14.4336C104.174 14.4336 105.277 14.6387 106.197 15.0488C107.127 15.459 107.838 16.0241 108.33 16.7441C108.831 17.4551 109.082 18.2663 109.082 19.1777H105.145C105.145 18.7949 105.062 18.4531 104.898 18.1523C104.743 17.8424 104.497 17.6009 104.16 17.4277C103.832 17.2454 103.404 17.1543 102.875 17.1543C102.438 17.1543 102.059 17.2318 101.74 17.3867C101.421 17.5326 101.175 17.7331 101.002 17.9883C100.838 18.2344 100.756 18.5078 100.756 18.8086C100.756 19.0365 100.801 19.2415 100.893 19.4238C100.993 19.597 101.152 19.7565 101.371 19.9023C101.59 20.0482 101.872 20.1849 102.219 20.3125C102.574 20.431 103.012 20.5404 103.531 20.6406C104.598 20.8594 105.55 21.1465 106.389 21.502C107.227 21.8483 107.893 22.3223 108.385 22.9238C108.877 23.5163 109.123 24.2956 109.123 25.2617C109.123 25.918 108.977 26.5195 108.686 27.0664C108.394 27.6133 107.975 28.0918 107.428 28.502C106.881 28.903 106.225 29.2174 105.459 29.4453C104.702 29.6641 103.85 29.7734 102.902 29.7734C101.526 29.7734 100.359 29.5273 99.4023 29.0352C98.4544 28.543 97.7344 27.9186 97.2422 27.1621C96.7591 26.3965 96.5176 25.6126 96.5176 24.8105H100.25C100.268 25.3483 100.405 25.7812 100.66 26.1094C100.924 26.4375 101.257 26.6745 101.658 26.8203C102.068 26.9661 102.51 27.0391 102.984 27.0391C103.495 27.0391 103.919 26.9707 104.256 26.834C104.593 26.6882 104.848 26.4967 105.021 26.2598C105.204 26.0137 105.295 25.7311 105.295 25.4121ZM111.051 22.2539V21.9668C111.051 20.8822 111.206 19.8841 111.516 18.9727C111.826 18.0521 112.277 17.2546 112.869 16.5801C113.462 15.9056 114.191 15.3815 115.057 15.0078C115.923 14.625 116.916 14.4336 118.037 14.4336C119.158 14.4336 120.156 14.625 121.031 15.0078C121.906 15.3815 122.64 15.9056 123.232 16.5801C123.834 17.2546 124.29 18.0521 124.6 18.9727C124.91 19.8841 125.064 20.8822 125.064 21.9668V22.2539C125.064 23.3294 124.91 24.3275 124.6 25.248C124.29 26.1595 123.834 26.957 123.232 27.6406C122.64 28.3151 121.911 28.8392 121.045 29.2129C120.179 29.5866 119.186 29.7734 118.064 29.7734C116.943 29.7734 115.945 29.5866 115.07 29.2129C114.204 28.8392 113.471 28.3151 112.869 27.6406C112.277 26.957 111.826 26.1595 111.516 25.248C111.206 24.3275 111.051 23.3294 111.051 22.2539ZM114.988 21.9668V22.2539C114.988 22.8737 115.043 23.4525 115.152 23.9902C115.262 24.528 115.435 25.002 115.672 25.4121C115.918 25.8132 116.237 26.1276 116.629 26.3555C117.021 26.5833 117.499 26.6973 118.064 26.6973C118.611 26.6973 119.081 26.5833 119.473 26.3555C119.865 26.1276 120.179 25.8132 120.416 25.4121C120.653 25.002 120.826 24.528 120.936 23.9902C121.054 23.4525 121.113 22.8737 121.113 22.2539V21.9668C121.113 21.3652 121.054 20.8001 120.936 20.2715C120.826 19.7337 120.648 19.2598 120.402 18.8496C120.165 18.4303 119.851 18.1022 119.459 17.8652C119.067 17.6283 118.593 17.5098 118.037 17.5098C117.481 17.5098 117.007 17.6283 116.615 17.8652C116.232 18.1022 115.918 18.4303 115.672 18.8496C115.435 19.2598 115.262 19.7337 115.152 20.2715C115.043 20.8001 114.988 21.3652 114.988 21.9668ZM131.34 17.8652V29.5H127.402V14.707H131.094L131.34 17.8652ZM130.766 21.584H129.699C129.699 20.4902 129.84 19.5059 130.123 18.6309C130.406 17.7467 130.802 16.9948 131.312 16.375C131.823 15.7461 132.429 15.2676 133.131 14.9395C133.842 14.6022 134.635 14.4336 135.51 14.4336C136.202 14.4336 136.836 14.5339 137.41 14.7344C137.984 14.9349 138.477 15.2539 138.887 15.6914C139.306 16.1289 139.625 16.7077 139.844 17.4277C140.072 18.1478 140.186 19.0273 140.186 20.0664V29.5H136.221V20.0527C136.221 19.3965 136.13 18.8861 135.947 18.5215C135.765 18.1569 135.496 17.9017 135.141 17.7559C134.794 17.6009 134.366 17.5234 133.855 17.5234C133.327 17.5234 132.867 17.6283 132.475 17.8379C132.092 18.0475 131.773 18.3392 131.518 18.7129C131.271 19.0775 131.085 19.5059 130.957 19.998C130.829 20.4902 130.766 21.0189 130.766 21.584ZM151.164 26.1641V19.5742C151.164 19.1003 151.087 18.6947 150.932 18.3574C150.777 18.0111 150.535 17.7422 150.207 17.5508C149.888 17.3594 149.473 17.2637 148.963 17.2637C148.525 17.2637 148.147 17.3411 147.828 17.4961C147.509 17.6419 147.263 17.8561 147.09 18.1387C146.917 18.4121 146.83 18.7357 146.83 19.1094H142.893C142.893 18.4805 143.038 17.8835 143.33 17.3184C143.622 16.7533 144.046 16.2565 144.602 15.8281C145.158 15.3906 145.818 15.0488 146.584 14.8027C147.359 14.5566 148.225 14.4336 149.182 14.4336C150.33 14.4336 151.351 14.625 152.244 15.0078C153.137 15.3906 153.839 15.9648 154.35 16.7305C154.869 17.4961 155.129 18.4531 155.129 19.6016V25.9316C155.129 26.7428 155.179 27.4082 155.279 27.9277C155.38 28.4382 155.525 28.8848 155.717 29.2676V29.5H151.738C151.547 29.099 151.401 28.5977 151.301 27.9961C151.21 27.3854 151.164 26.7747 151.164 26.1641ZM151.684 20.4902L151.711 22.7188H149.51C148.99 22.7188 148.539 22.778 148.156 22.8965C147.773 23.015 147.459 23.1836 147.213 23.4023C146.967 23.612 146.785 23.8581 146.666 24.1406C146.557 24.4232 146.502 24.7331 146.502 25.0703C146.502 25.4076 146.579 25.7129 146.734 25.9863C146.889 26.2507 147.113 26.4603 147.404 26.6152C147.696 26.7611 148.038 26.834 148.43 26.834C149.022 26.834 149.537 26.7155 149.975 26.4785C150.412 26.2415 150.749 25.9499 150.986 25.6035C151.232 25.2572 151.36 24.929 151.369 24.6191L152.408 26.2871C152.262 26.6608 152.062 27.0482 151.807 27.4492C151.561 27.8503 151.246 28.2285 150.863 28.584C150.48 28.9303 150.02 29.2174 149.482 29.4453C148.945 29.6641 148.307 29.7734 147.568 29.7734C146.63 29.7734 145.777 29.5866 145.012 29.2129C144.255 28.8301 143.654 28.306 143.207 27.6406C142.77 26.9661 142.551 26.2005 142.551 25.3438C142.551 24.569 142.697 23.8809 142.988 23.2793C143.28 22.6777 143.708 22.1719 144.273 21.7617C144.848 21.3424 145.563 21.028 146.42 20.8184C147.277 20.5996 148.27 20.4902 149.4 20.4902H151.684ZM162.32 8.5V29.5H158.369V8.5H162.32ZM188.57 19.0957V26.9844C188.26 27.3581 187.782 27.7637 187.135 28.2012C186.488 28.6296 185.654 28.9987 184.633 29.3086C183.612 29.6185 182.377 29.7734 180.928 29.7734C179.643 29.7734 178.471 29.5638 177.414 29.1445C176.357 28.7161 175.445 28.0918 174.68 27.2715C173.923 26.4512 173.34 25.4486 172.93 24.2637C172.52 23.0697 172.314 21.707 172.314 20.1758V18.9316C172.314 17.4004 172.51 16.0378 172.902 14.8438C173.303 13.6497 173.873 12.6426 174.611 11.8223C175.35 11.002 176.229 10.3776 177.25 9.94922C178.271 9.52083 179.406 9.30664 180.654 9.30664C182.386 9.30664 183.808 9.58919 184.92 10.1543C186.032 10.7103 186.88 11.485 187.463 12.4785C188.055 13.4629 188.42 14.5931 188.557 15.8691H184.578C184.478 15.1947 184.286 14.6068 184.004 14.1055C183.721 13.6042 183.316 13.2122 182.787 12.9297C182.268 12.6471 181.593 12.5059 180.764 12.5059C180.08 12.5059 179.469 12.6471 178.932 12.9297C178.403 13.2031 177.956 13.6087 177.592 14.1465C177.227 14.6842 176.949 15.3496 176.758 16.1426C176.566 16.9355 176.471 17.8561 176.471 18.9043V20.1758C176.471 21.2148 176.571 22.1354 176.771 22.9375C176.972 23.7305 177.268 24.4004 177.66 24.9473C178.061 25.485 178.553 25.8906 179.137 26.1641C179.72 26.4375 180.399 26.5742 181.174 26.5742C181.821 26.5742 182.359 26.5195 182.787 26.4102C183.225 26.3008 183.576 26.1686 183.84 26.0137C184.113 25.8496 184.323 25.6947 184.469 25.5488V22.0215H180.723V19.0957H188.57ZM196.021 27.832L199.945 14.707H204.17L198.223 31.7285C198.095 32.1022 197.922 32.5033 197.703 32.9316C197.493 33.36 197.206 33.7656 196.842 34.1484C196.486 34.5404 196.035 34.8594 195.488 35.1055C194.951 35.3516 194.29 35.4746 193.506 35.4746C193.132 35.4746 192.827 35.4518 192.59 35.4062C192.353 35.3607 192.07 35.2969 191.742 35.2148V32.3301C191.842 32.3301 191.947 32.3301 192.057 32.3301C192.166 32.3392 192.271 32.3438 192.371 32.3438C192.891 32.3438 193.314 32.2845 193.643 32.166C193.971 32.0475 194.235 31.8652 194.436 31.6191C194.636 31.3822 194.796 31.0723 194.914 30.6895L196.021 27.832ZM194.381 14.707L197.594 25.4258L198.154 29.5957L195.475 29.8828L190.156 14.707H194.381ZM209.68 17.7695V29.5H205.729V14.707H209.434L209.68 17.7695ZM209.133 21.584H208.039C208.039 20.554 208.162 19.6061 208.408 18.7402C208.663 17.8652 209.033 17.1087 209.516 16.4707C210.008 15.8236 210.614 15.3223 211.334 14.9668C212.054 14.6113 212.888 14.4336 213.836 14.4336C214.492 14.4336 215.094 14.5339 215.641 14.7344C216.188 14.9258 216.657 15.2311 217.049 15.6504C217.45 16.0605 217.76 16.5983 217.979 17.2637C218.197 17.9199 218.307 18.7083 218.307 19.6289V29.5H214.369V20.0664C214.369 19.3919 214.278 18.8724 214.096 18.5078C213.913 18.1432 213.654 17.888 213.316 17.7422C212.988 17.5964 212.592 17.5234 212.127 17.5234C211.617 17.5234 211.17 17.6283 210.787 17.8379C210.413 18.0475 210.104 18.3392 209.857 18.7129C209.611 19.0775 209.429 19.5059 209.311 19.998C209.192 20.4902 209.133 21.0189 209.133 21.584ZM217.938 21.1328L216.529 21.3105C216.529 20.3444 216.648 19.4466 216.885 18.6172C217.131 17.7878 217.491 17.0586 217.965 16.4297C218.448 15.8008 219.045 15.3132 219.756 14.9668C220.467 14.6113 221.287 14.4336 222.217 14.4336C222.928 14.4336 223.575 14.5384 224.158 14.748C224.742 14.9486 225.238 15.2721 225.648 15.7188C226.068 16.1562 226.387 16.7305 226.605 17.4414C226.833 18.1523 226.947 19.0228 226.947 20.0527V29.5H222.996V20.0527C222.996 19.3691 222.905 18.8496 222.723 18.4941C222.549 18.1296 222.294 17.8789 221.957 17.7422C221.629 17.5964 221.237 17.5234 220.781 17.5234C220.307 17.5234 219.893 17.6191 219.537 17.8105C219.182 17.9928 218.885 18.248 218.648 18.5762C218.411 18.9043 218.234 19.2871 218.115 19.7246C217.997 20.153 217.938 20.6224 217.938 21.1328Z" fill="white"/>
<defs>
<clipPath id="clip0_405_3573">
<rect width="40" height="40" fill="white" transform="translate(0.5)"/>
</clipPath>
</defs>
</svg>

